<?xml version="1.0" encoding="UTF-8"?>
<svg version="1.1" xmlns="http://www.w3.org/2000/svg" width="1651" height="584">
<path d="M0 0 C2.08314151 2.28473585 2.92629813 3.87213803 3.12890625 6.97265625 C2.61622278 15.78149045 -2.13105235 22.66851957 -6.8125 29.875 C-16.64164521 45.72726802 -21.54458325 64.04162567 -26 82 C-26.1949707 82.77408203 -26.38994141 83.54816406 -26.59082031 84.34570312 C-30.13926124 98.98726244 -32.63340789 119.75004282 -27 134 C-24.72410321 137.07796965 -24.72410321 137.07796965 -21.8125 139.5625 C-20.80668806 140.49926008 -19.80277997 141.43806849 -18.80078125 142.37890625 C-17.87652344 143.24386719 -16.95226563 144.10882813 -16 145 C-14.81006463 146.31260912 -13.63992784 147.64373549 -12.5 149 C-9.80497708 152.1803825 -6.89973128 155.0071712 -3.875 157.875 C3.50752761 165.07197266 9.2350183 173.49426078 15 182 C15.51739746 182.75845215 16.03479492 183.5169043 16.56787109 184.29833984 C34.11206731 210.2664245 48.58875718 241.07627722 48 273 C44.99450279 271.53970679 42.11591345 269.93202351 39.23828125 268.234375 C38.29734619 267.68120605 37.35641113 267.12803711 36.38696289 266.55810547 C34.86510376 265.66309326 34.86510376 265.66309326 33.3125 264.75 C-5.68028454 241.24015402 -5.68028454 241.24015402 -48 225 C-48.69826904 224.80857422 -49.39653809 224.61714844 -50.1159668 224.41992188 C-56.0450044 222.93585984 -61.71863979 222.69810055 -67.8125 222.75 C-68.73998047 222.74226562 -69.66746094 222.73453125 -70.62304688 222.7265625 C-71.51701172 222.72914063 -72.41097656 222.73171875 -73.33203125 222.734375 C-74.53436401 222.73775879 -74.53436401 222.73775879 -75.76098633 222.74121094 C-78.22369906 223.02585552 -79.86453102 223.77066328 -82 225 C-81.35264893 225.13986328 -80.70529785 225.27972656 -80.03833008 225.42382812 C-38.71717261 234.48890526 -2.52819404 253.9415324 32 278 C32.61053223 278.42442383 33.22106445 278.84884766 33.85009766 279.28613281 C43.40384079 285.95685523 52.73165854 292.93994968 62 300 C62.61939453 300.47083008 63.23878906 300.94166016 63.87695312 301.42675781 C72.32876223 307.8763469 80.31653475 314.65335756 88 322 C88.55107422 322.51852539 89.10214844 323.03705078 89.66992188 323.57128906 C108.12365155 340.98817468 108.12365155 340.98817468 108.75 351.4375 C108.734375 353.80859375 108.734375 353.80859375 108 356 C106.36519558 357.37221357 104.70000239 358.7094391 103 360 C101.95996826 359.51756836 100.91993652 359.03513672 99.84838867 358.53808594 C88.71091008 353.37436201 77.56310894 348.23336352 66.40808105 343.10766602 C64.2557165 342.11762415 62.10461755 341.12490822 59.95410156 340.13085938 C13.92466007 318.90973869 -49.65560119 294.36142056 -101 298 C-100.67 298.99 -100.34 299.98 -100 301 C-98.21997905 301.84366766 -98.21997905 301.84366766 -95.94921875 302.34765625 C-91.41771218 303.58614513 -86.96520313 304.98140485 -82.51953125 306.49609375 C-81.11556171 306.97054248 -79.71150612 307.44473663 -78.30737305 307.91870117 C-77.21264175 308.28878799 -77.21264175 308.28878799 -76.09579468 308.66635132 C-65.64286932 312.19667077 -55.18572214 315.68877297 -44.6171875 318.859375 C-43.84371979 319.09150696 -43.07025208 319.32363892 -42.27334595 319.56280518 C-40.70136444 320.03411634 -39.12935302 320.50532776 -37.55731201 320.97644043 C-15.37132763 327.63332141 6.35722133 335.48220882 28.07739258 343.51635742 C28.79026932 343.77994553 29.50314606 344.04353363 30.23762512 344.31510925 C32 345 32 345 34 346 C33.50627537 352.58552696 31.73335711 357.79983494 29.0625 363.8125 C28.66281006 364.72467285 28.26312012 365.6368457 27.85131836 366.57666016 C9.03968934 408.8453059 -18.87150713 438.69354274 -58 463 C-59.60685031 464.00768578 -61.21362571 465.01549102 -62.8203125 466.0234375 C-63.94590576 466.72182739 -63.94590576 466.72182739 -65.09423828 467.43432617 C-66.57220356 468.35256456 -68.04459575 469.27983494 -69.51123047 470.21606445 C-73.0861502 472.44708066 -76.41480157 474.23725194 -80.4375 475.51953125 C-86.98607725 477.79290916 -91.38652469 480.09548988 -94.85693359 486.34277344 C-98.44227614 494.01796492 -101.14791165 502.0758228 -103.8989563 510.07797241 C-110.75345319 529.89647801 -123.47071151 547.09816565 -138 562 C-138.86625 562.9590625 -138.86625 562.9590625 -139.75 563.9375 C-146.02289462 570.71222619 -156.73735969 580.23314608 -166.0625 581.375 C-169 581 -169 581 -170.875 579.5 C-173.81479562 572.96712085 -171.41745616 565.28508057 -169.875 558.625 C-169.65489258 557.64273438 -169.43478516 556.66046875 -169.20800781 555.6484375 C-167.95403434 550.07988582 -166.65806009 544.52103047 -165.3671875 538.9609375 C-165.09793457 537.79997559 -164.82868164 536.63901367 -164.55126953 535.44287109 C-164.02748493 533.19228899 -163.49997129 530.94257064 -162.96826172 528.69384766 C-159.54519477 514.08830653 -156.90194257 497.87829139 -164 484 C-164.69416016 482.59427734 -164.69416016 482.59427734 -165.40234375 481.16015625 C-175.46859315 462.43053328 -192.3775023 447.86605623 -209.1875 435.375 C-223.27060975 424.88134345 -223.27060975 424.88134345 -225 420 C-224.8515625 417.85546875 -224.8515625 417.85546875 -224 416 C-203.77322547 406.58408772 -178.43204032 414.65674547 -158.67724609 421.84521484 C-144.99375326 427.01755739 -132.54998186 433.18538953 -121.37451172 442.73706055 C-117.3007536 446.17608599 -113.15020162 449.38555323 -108 451 C-103.22154532 450.2681646 -100.02432251 446.6146762 -96.625 443.375 C-96.04919189 442.83085449 -95.47338379 442.28670898 -94.88012695 441.72607422 C-93.24112864 440.16280749 -91.6171037 438.58587322 -90 437 C-88.95005859 435.97132813 -88.95005859 435.97132813 -87.87890625 434.921875 C-76.79130746 423.14290169 -71.26562292 408.78393962 -71.65625 392.703125 C-73.16915446 376.40501786 -83.2905948 362.37061189 -95.48461914 352.06860352 C-120.89784812 331.45747286 -152.39143121 322.40057341 -182.99575806 312.5161438 C-201.86265638 306.4219397 -220.53143214 299.99308795 -239.00036621 292.78070068 C-241.03326257 291.98701357 -243.06785646 291.19778653 -245.10253906 290.40869141 C-351.59891438 248.97750115 -351.59891438 248.97750115 -376.0625 209.6875 C-377 207 -377 207 -377 204.875 C-372.90035963 197.18817431 -361.08384099 194.560279 -353.26513672 192.16064453 C-322.49138431 183.18345237 -294.25692787 185.83111141 -263.07675171 191.08531189 C-259.34671984 191.70072199 -255.7834427 192.15733128 -252 192 C-281.40794729 174.6986821 -312.13584227 167.11043598 -346 175 C-358.21928775 178.28918924 -370.12953014 182.42906407 -381.18066406 188.64916992 C-385.48576043 191.02883269 -385.48576043 191.02883269 -387.85058594 190.89624023 C-390.97204922 189.59468507 -393.08198599 187.38465016 -395.4375 185.03125 C-395.9547464 184.5237471 -396.4719928 184.0162442 -397.00491333 183.49336243 C-398.68063191 181.83926592 -400.34185668 180.17170534 -402 178.5 C-402.5649115 177.93332611 -403.129823 177.36665222 -403.71185303 176.7828064 C-416.41511477 163.9906268 -426.84797267 150.6671514 -434 134 C-434.35835937 133.18917969 -434.71671875 132.37835938 -435.0859375 131.54296875 C-438.5008721 122.34770908 -438.73073762 109.65080668 -435.5 100.375 C-429.32384798 87.80674659 -416.06573662 81.80518899 -403.48828125 77.44140625 C-354.37006746 61.26345304 -297.06181804 62.24138678 -246 67 C-245.34505554 67.0608075 -244.69011108 67.12161499 -244.01531982 67.18426514 C-189.76959745 72.28406657 -138.42269083 86.50075678 -87 104 C-87.495 103.54625 -87.99 103.0925 -88.5 102.625 C-90 101 -90 101 -90 99 C-90.86173828 98.73590332 -91.72347656 98.47180664 -92.61132812 98.19970703 C-96.02567048 96.99091176 -99.0320057 95.52148989 -102.21875 93.8046875 C-103.08273407 93.34131233 -103.08273407 93.34131233 -103.96417236 92.86857605 C-105.81211003 91.87556863 -107.65615096 90.87557566 -109.5 89.875 C-110.76453493 89.19306747 -112.0291836 88.51134581 -113.29394531 87.82983398 C-121.60083291 83.34434854 -129.86263156 78.78758707 -138 74 C-138 71 -138 71 -136.77734375 69.66796875 C-136.17019531 69.17941406 -135.56304688 68.69085938 -134.9375 68.1875 C-130.6940979 64.63751352 -126.65349909 60.91401295 -122.625 57.125 C-117.63237915 52.44384316 -112.61290442 47.80320703 -107.4921875 43.26171875 C-105.66635557 41.60473335 -103.89255933 39.93120997 -102.1328125 38.20703125 C-81.55914088 18.23779496 -29.67524902 -17.7101195 0 0 Z M-281.125 101.4375 C-285.98442122 105.76872326 -291.37992289 110.63061945 -292.3359375 117.3671875 C-292.42482931 123.074042 -292.11586922 126.67833732 -288 131 C-283.45068794 134.28618479 -278.79603306 135.78741611 -273.17578125 135.515625 C-267.94798187 134.27672102 -264.9051286 130.4180348 -262.125 126.0625 C-259.97065123 120.19788389 -259.38921571 115.69113759 -261.86328125 109.92578125 C-264.68489787 105.14551667 -268.82156394 102.10189847 -274.0625 100.375 C-277.97181831 99.67015488 -277.97181831 99.67015488 -281.125 101.4375 Z M-174 127 C-173.88027832 127.59498291 -173.76055664 128.18996582 -173.63720703 128.80297852 C-173.28305414 130.56774327 -172.93049167 132.33282759 -172.57910156 134.09814453 C-172.21027455 135.9463224 -171.83763926 137.7937473 -171.45996094 139.64013672 C-165.29132678 170.31858339 -166.92712533 195.62829552 -180 224 C-170.28589236 220.29394549 -165.47514763 213.09096319 -161 204 C-153.46269431 186.29799548 -149.71622916 163.0447149 -156.74609375 144.625 C-160.65385829 136.44425928 -164.91508897 131.34032066 -173 127 C-173.33 127 -173.66 127 -174 127 Z M-136 139 C-135.86722656 139.85722656 -135.73445313 140.71445313 -135.59765625 141.59765625 C-135.42105469 142.74105469 -135.24445313 143.88445312 -135.0625 145.0625 C-134.88847656 146.18785156 -134.71445313 147.31320313 -134.53515625 148.47265625 C-134.35855469 149.63667969 -134.18195313 150.80070313 -134 152 C-133.81824219 153.010625 -133.63648438 154.02125 -133.44921875 155.0625 C-130.12048592 184.23956688 -135.23995352 207.94972504 -150 233 C-149.34 233.33 -148.68 233.66 -148 234 C-147.13375 233.443125 -146.2675 232.88625 -145.375 232.3125 C-144.88773438 231.99925781 -144.40046875 231.68601562 -143.8984375 231.36328125 C-138.67348035 227.61120297 -134.8576944 223.98090372 -131.4375 218.5 C-131.05255371 217.88833984 -130.66760742 217.27667969 -130.27099609 216.64648438 C-120.04844609 199.9006454 -116.25263259 179.44424051 -119.69140625 160.11328125 C-121.96500525 151.92261706 -125.35223838 144.89207699 -132.875 140.5 C-133.90625 140.005 -134.9375 139.51 -136 139 Z " fill="#55CEC6" transform="translate(1543,3)"/>
<path d="M0 0 C8.58821136 6.94314552 16.99974148 17.76810576 18.23828125 29.19921875 C18.44555278 36.14826945 17.31825636 41.24185951 12.64453125 46.53515625 C8.58574398 50.26749951 4.27579803 52.00572692 -1.234375 51.99609375 C-9.75326545 51.32430205 -16.01974329 47.4695554 -21.65234375 41.14453125 C-22.22082031 40.47808594 -22.78929687 39.81164062 -23.375 39.125 C-31.78656337 29.37272893 -41.09013531 23.15398617 -54.0546875 21.21484375 C-67.5970461 20.22700592 -82.12047962 22.44764975 -93 31 C-99.06115794 36.95864365 -101.85601571 44.59431035 -102.5 53 C-102.14189367 60.10482954 -98.22415611 66.20424655 -93.25 71.0625 C-80.65867835 81.33436766 -65.31902913 86.34786537 -50 91 C-30.20534089 97.05117343 -11.54690442 103.89692087 4 118 C4.64324219 118.55042969 5.28648437 119.10085938 5.94921875 119.66796875 C17.02411922 129.74737255 24.20435131 146.10036769 25.12280273 160.9909668 C25.98211956 184.40669733 21.10846361 207.04651412 5 225 C-15.05399187 242.65828009 -40.18136253 249.30555385 -66.64453125 248.15673828 C-88.59678581 246.69598502 -112.03628351 241.95854905 -129 227 C-129.57621094 226.55011719 -130.15242188 226.10023438 -130.74609375 225.63671875 C-138.07888287 219.31647512 -143.82204855 208.13566513 -145.1875 198.5625 C-145.32590356 192.23852207 -143.64376389 186.98981944 -139.625 182.125 C-133.33185441 177.0305488 -128.13028185 175.33358345 -120 176 C-109.10565077 178.71441698 -101.74923848 186.25681422 -95.41015625 195.15625 C-88.28468556 204.4726549 -76.75708781 209.13028662 -65.4375 210.75 C-52.66415195 211.81768107 -38.73770531 208.76417312 -28.7109375 200.55859375 C-20.74927261 193.30584423 -17.48225114 184.86155889 -16.1328125 174.3359375 C-15.73425071 164.32500304 -19.53357406 156.43325079 -26 149 C-39.62127119 134.84802993 -58.02560321 129.53055719 -76.25268555 123.68823242 C-91.98607395 118.62389358 -106.3809722 112.92754109 -119 102 C-119.87785156 101.35224609 -119.87785156 101.35224609 -120.7734375 100.69140625 C-131.85548947 92.24196843 -139.49408183 77.27455445 -141.71484375 63.734375 C-143.77464744 43.98283273 -139.22662617 25.60420383 -127.1875 9.625 C-97.93426865 -24.47590969 -34.90940312 -26.25262391 0 0 Z " fill="#55CEC6" transform="translate(600,335)"/>
<path d="M0 0 C4.52733002 2.68392349 6.79307631 6.44172892 8.4375 11.375 C8.55746454 14.06647956 8.62281849 16.7340364 8.64282227 19.42651367 C8.65272186 20.24625168 8.66262146 21.06598969 8.67282104 21.91056824 C8.70442009 24.62133898 8.7291872 27.33212725 8.75390625 30.04296875 C8.77447715 31.92198646 8.79547366 33.80099955 8.81687927 35.68000793 C8.87208586 40.6267015 8.9215014 45.57343674 8.96972656 50.52020264 C9.01995187 55.56754262 9.07563257 60.61482207 9.13085938 65.66210938 C9.23842368 75.56635454 9.33987253 85.47065225 9.4375 95.375 C9.97874512 94.89202957 10.51999023 94.40905914 11.07763672 93.91145325 C12.14908936 92.96298775 12.14908936 92.96298775 13.2421875 91.99536133 C14.30155518 91.05434319 14.30155518 91.05434319 15.38232422 90.09431458 C17.90489756 87.98398555 20.47846983 86.4897496 23.4375 85.0625 C24.38625 84.59199219 25.335 84.12148438 26.3125 83.63671875 C42.25350725 77.20053707 60.06265944 79.4638751 75.67578125 85.66015625 C90.73455796 92.52940763 99.4094972 104.21032185 105.375 119.3203125 C109.36446362 130.79002042 110.58631502 141.64784867 110.61450195 153.70092773 C110.62107315 154.92780304 110.62764435 156.15467834 110.63441467 157.41873169 C110.65407343 161.46535494 110.66579939 165.51193876 110.67578125 169.55859375 C110.67983303 170.95731182 110.68395007 172.3560297 110.68813133 173.75474739 C110.70714733 180.32428447 110.72138961 186.89381053 110.7297433 193.46336979 C110.73952291 201.02718908 110.7658761 208.59071632 110.80624419 216.15443271 C110.83644851 222.01622395 110.85121597 227.87793157 110.85452431 233.73979908 C110.85686848 237.23440989 110.86574674 240.72870736 110.89098549 244.22323418 C110.91869515 248.12214306 110.91442186 252.0206693 110.9074707 255.91967773 C110.92668579 257.64135414 110.92668579 257.64135414 110.94628906 259.39781189 C110.90448781 265.83599344 110.3666902 271.08525928 106.4375 276.375 C99.41585683 282.08008508 92.22010859 282.12000025 83.4375 281.375 C78.70089899 280.07373599 76.09231919 278.18093131 73 274.375 C70.87607226 270.29705873 70.31336297 267.11738358 70.29946899 262.54641724 C70.29401566 261.57669479 70.28856232 260.60697235 70.28294373 259.60786438 C70.2819014 258.5502037 70.28085907 257.49254303 70.27978516 256.40283203 C70.27470444 255.28356827 70.26962372 254.1643045 70.26438904 253.01112366 C70.2536845 250.5781139 70.24506465 248.14509429 70.23826981 245.71207047 C70.22646734 241.85168605 70.20700762 237.99141283 70.18515015 234.131073 C70.12360211 223.1538266 70.06939469 212.17659013 70.03613281 201.19921875 C70.01569551 194.48364116 69.97970538 187.76829071 69.93537521 181.05282211 C69.92128304 178.50219979 69.91250824 175.95154198 69.90932083 173.40088272 C70.71600502 148.37066482 70.71600502 148.37066482 60.4375 126.375 C51.84624953 119.73815722 44.1408097 118.48200941 33.4375 119.375 C26.3371308 121.23791546 20.17265585 125.41348352 16 131.45703125 C8.29159133 145.29087181 9.01575377 161.31932962 9.05737495 176.64356804 C9.06658157 180.34788456 9.05615564 184.05170534 9.04075623 187.7559967 C9.00595064 196.94315478 8.99833491 206.13028609 9.00085449 215.31750488 C9.00252014 223.11298282 8.98882788 230.90809607 8.95237541 238.70349312 C8.94157901 242.3440896 8.95365732 245.98416124 8.96620178 249.6247406 C8.95729775 251.86042802 8.9472235 254.09611119 8.93579102 256.33178711 C8.94553452 257.33609268 8.95527802 258.34039825 8.96531677 259.37513733 C8.88949115 266.81824709 7.4151435 272.3973565 2.0625 277.75 C-3.92848525 281.45870516 -9.64977787 282.07724479 -16.5625 281.375 C-21.77494087 279.75145284 -25.15453645 277.65929704 -28.5625 273.375 C-30.72506407 267.54152681 -30.84755285 262.15980255 -30.82319641 255.98219299 C-30.82702196 254.9487178 -30.83084751 253.9152426 -30.83478898 252.85044998 C-30.84509105 249.39446995 -30.84113209 245.93865692 -30.8371582 242.48266602 C-30.84150619 240.00203294 -30.84668963 237.52140122 -30.85264587 235.04077148 C-30.8646468 229.00644885 -30.86718849 222.97219163 -30.86484561 216.93786306 C-30.86306071 212.03201025 -30.86481578 207.12617094 -30.86907005 202.22031975 C-30.86966524 201.52141157 -30.87026043 200.82250339 -30.87087366 200.10241617 C-30.87208544 198.68247176 -30.87329957 197.26252734 -30.87451603 195.84258293 C-30.88538558 182.53460235 -30.88323176 169.22664712 -30.87713119 155.9186651 C-30.87196169 143.75124663 -30.88321935 131.58390822 -30.90222941 119.41650558 C-30.92161318 106.91378056 -30.92986292 94.41109341 -30.92610615 81.90835327 C-30.92419504 74.89269274 -30.92667301 67.87710036 -30.94082069 60.8614521 C-30.95398935 54.26471744 -30.95146716 47.66811654 -30.93840981 41.07137299 C-30.93604171 38.6510532 -30.93878701 36.23072217 -30.94703293 33.81041527 C-30.95748191 30.50502059 -30.94941403 27.20016592 -30.9367218 23.89479065 C-30.94409609 22.9384583 -30.95147037 21.98212595 -30.95906812 20.99681383 C-30.90137685 13.84870693 -29.87531577 8.17472436 -25.1875 2.5 C-18.32354739 -3.05653307 -8.01131015 -3.61412488 0 0 Z " fill="#55CEC6" transform="translate(713.5625,301.625)"/>
<path d="M0 0 C4.01840632 2.4265323 6.54459098 5.73590866 7.9627676 10.24296188 C8.43743604 12.69791499 8.51520583 14.98643755 8.53321838 17.48760986 C8.5430072 18.51963531 8.55279602 19.55166077 8.56288147 20.61495972 C8.57151466 22.30457321 8.57151466 22.30457321 8.58032227 24.02832031 C8.59022186 25.21884003 8.60012146 26.40935974 8.61032104 27.63595581 C8.63648406 30.89593297 8.65835633 34.15590509 8.67832303 37.41592503 C8.7002139 40.8245715 8.7275874 44.23317383 8.75437927 47.64178467 C8.80426427 54.09441653 8.84921863 60.54707295 8.89240164 66.99975276 C8.94180988 74.34677232 8.99671469 81.69374758 9.05208123 89.04072428 C9.1658369 104.15210822 9.27268987 119.26353391 9.375 134.375 C13.38017282 130.39474213 17.38189955 126.41106133 21.38061523 122.42431641 C22.73842127 121.07150645 24.09712751 119.71959934 25.45678711 118.36865234 C35.73541769 108.17105091 35.73541769 108.17105091 45.375 97.375 C52.90421841 89.12363958 61.84652043 80.11514786 73.375 78.375 C79.80356045 78.47704064 84.47894654 80.11945021 89.375 84.375 C93.8537054 90.26056099 95.1823381 96.16705839 94.375 103.375 C91.38125061 114.08583286 81.73679061 121.59402991 74.0625 129.0625 C72.65840291 130.45005732 71.25539895 131.83872172 69.85351562 133.22851562 C64.08405269 138.92312368 58.29482285 144.52550957 52.15866089 149.82717896 C49.64301786 152.01019774 47.2153029 154.25507554 44.8125 156.5625 C43.94496094 157.38105469 43.07742188 158.19960938 42.18359375 159.04296875 C41.58675781 159.81253906 40.98992187 160.58210937 40.375 161.375 C40.9813447 165.67749603 43.4245388 169.15099354 45.625 172.8125 C46.06682617 173.5554834 46.50865234 174.2984668 46.96386719 175.06396484 C50.99222434 181.80623596 55.1266284 188.4828581 59.27441406 195.15209961 C63.34788995 201.70248106 67.3724974 208.28104091 71.375 214.875 C76.05538096 222.57989887 80.7589592 230.26975748 85.5 237.9375 C86.03238281 238.79988281 86.56476563 239.66226563 87.11328125 240.55078125 C89.24030799 243.98464447 91.37118035 247.39803811 93.66015625 250.7265625 C97.23909534 256.25394452 97.86488146 261.80433825 96.91796875 268.265625 C95.85095787 272.41084711 93.5768535 275.25327007 90.5 278.125 C84.42766759 281.69696024 78.27609878 282.15074395 71.375 281.375 C60.5848174 278.26525685 54.8684687 264.49101804 49.6416626 255.5067749 C47.56491709 251.93802316 45.46713177 248.38166216 43.37109375 244.82421875 C42.94932861 244.10735901 42.52756348 243.39049927 42.09301758 242.6519165 C37.58733012 235.00863451 32.93526595 227.4597176 28.24243164 219.92993164 C21.77692233 209.51700229 15.58883388 198.93934872 9.375 188.375 C9.36913376 189.33442505 9.36326752 190.2938501 9.35722351 191.28234863 C9.2998917 200.34516374 9.22707573 209.40774132 9.13928509 218.47031403 C9.0946487 223.12895461 9.05537787 227.7875091 9.02856445 232.44628906 C9.00246415 236.94630092 8.96201453 241.44598027 8.91181374 245.94578552 C8.8951904 247.65844064 8.88364798 249.37115322 8.87738609 251.08387756 C8.86769533 253.49181585 8.83957835 255.89891212 8.80737305 258.30664062 C8.80880814 259.00723602 8.81024323 259.70783142 8.8117218 260.42965698 C8.70880272 265.90718427 7.71492492 271.6344141 4.06492138 275.90940094 C-1.69702003 281.05073702 -7.50667078 281.78640538 -14.94140625 281.625 C-21.32475324 281.03033594 -25.45475955 278.26013881 -29.625 273.375 C-31.38423303 270.42639095 -31.8765213 268.27905842 -31.88506222 264.8602562 C-31.89212781 263.95502614 -31.8991934 263.04979608 -31.9064731 262.11713481 C-31.90405802 261.12648752 -31.90164293 260.13584024 -31.89915466 259.11517334 C-31.90700968 257.53205349 -31.90700968 257.53205349 -31.91502339 255.91695142 C-31.93006465 252.36874994 -31.93072945 248.82069215 -31.93139648 245.27246094 C-31.93901522 242.73315689 -31.94744223 240.19385516 -31.95661926 237.65455627 C-31.97860019 230.74744487 -31.98738975 223.84038345 -31.99244571 216.93324184 C-31.99570313 212.61944306 -32.00222591 208.30565318 -32.0094471 203.99185944 C-32.02901326 192.04549319 -32.04541721 180.09913523 -32.04832363 168.15275192 C-32.0485112 167.38829359 -32.04869877 166.62383526 -32.04889202 165.83621152 C-32.04925827 164.28649887 -32.04962197 162.73678621 -32.04998314 161.18707356 C-32.05016595 160.4178051 -32.05034876 159.64853665 -32.05053711 158.85595703 C-32.05071766 158.08574829 -32.05089821 157.31553956 -32.05108423 156.52199116 C-32.0546253 144.04394316 -32.08164334 131.5660678 -32.119035 119.08807966 C-32.1571274 106.27356452 -32.17648118 93.45913502 -32.17678314 80.64456201 C-32.17736753 73.45106283 -32.18584701 66.25776956 -32.21478081 59.06432343 C-32.24187309 52.29762986 -32.24319165 45.53141268 -32.22712517 38.76466179 C-32.22530704 36.28144633 -32.23203397 33.79820766 -32.24794388 31.3150425 C-32.26834664 27.92379754 -32.25788479 24.53398759 -32.23973083 21.14276123 C-32.2529308 20.16103683 -32.26613077 19.17931243 -32.27973074 18.16783881 C-32.20138523 11.75616345 -30.89200534 7.27169054 -26.625 2.375 C-19.48791047 -3.36360838 -8.21943835 -3.66334518 0 0 Z " fill="#55CEC6" transform="translate(1185.625,301.625)"/>
<path d="M0 0 C10.86769828 9.57831035 16.11876009 23.19749954 17.28011703 37.43375778 C17.38632452 41.0921723 17.40568305 44.73999078 17.38818359 48.39990234 C17.392261 49.78946339 17.39760936 51.17902119 17.40411377 52.568573 C17.41764687 56.29964196 17.41254962 60.03045868 17.40297651 63.76153135 C17.39531556 67.68466529 17.40244237 71.60777941 17.40713501 75.53091431 C17.41257013 82.10902745 17.40545619 88.68703904 17.39111328 95.26513672 C17.37475022 102.85716864 17.38011069 110.44895926 17.3965925 118.04098547 C17.41022295 124.58314967 17.41212064 131.12524144 17.40427649 137.66741526 C17.39961376 141.56478942 17.39893722 145.46205021 17.40888596 149.35941696 C17.41757764 153.01874441 17.41149399 156.67776118 17.39420319 160.33705521 C17.38837381 162.31202014 17.39723213 164.2870115 17.40658569 166.26196289 C17.34967275 174.23865051 16.90396007 179.56109991 11.625 185.8125 C5.67021536 190.77482054 -0.55389078 190.62298125 -8 190 C-13.59458796 188.79610132 -16.83995733 185.69492053 -20 181 C-20.90196925 178.66051727 -21.45853734 176.46119391 -22 174 C-22.99 174.86625 -23.98 175.7325 -25 176.625 C-26.33276068 177.75067835 -27.66611582 178.87565318 -29 180 C-29.88558594 180.78890625 -29.88558594 180.78890625 -30.7890625 181.59375 C-40.28330461 189.51235193 -51.99763816 191.08007756 -64 190 C-77.92868048 188.16252978 -90.14689821 182.02429975 -99 171 C-119.39858879 143.0366209 -121.82974881 103.64358156 -116.80053711 70.47558594 C-112.68627338 45.39072034 -103.75229557 20.31487214 -83.125 4.125 C-59.25835712 -12.73100704 -24.71185699 -18.5892178 0 0 Z M-60.2265625 35.09765625 C-77.21807333 53.32423285 -78.73874611 80.22656054 -78.140625 103.94580078 C-77.36322388 120.82998135 -75.12641735 138.13323438 -62.5625 150.375 C-57.26609298 153.73369713 -52.3548179 154.44255778 -46.265625 153.53125 C-39.0876698 151.84814326 -33.97668271 148.20173137 -30 142 C-23.0165478 128.12498313 -22.8350603 113.10461228 -22.796875 97.90625 C-22.79404762 97.14242508 -22.79122025 96.37860016 -22.78830719 95.59162903 C-22.7734016 91.55473495 -22.76411587 87.51787586 -22.75976562 83.48095703 C-22.75427222 79.33536961 -22.73020123 75.19010913 -22.70179367 71.04462433 C-22.68309032 67.83253052 -22.67795777 64.62051462 -22.67642975 61.40837097 C-22.67342356 59.88069356 -22.66546467 58.35301684 -22.65224457 56.82539368 C-22.29142941 42.54834224 -22.29142941 42.54834224 -29.0625 30.5625 C-39.60559712 22.67175436 -51.39429431 26.57181369 -60.2265625 35.09765625 Z " fill="#55CEC6" transform="translate(970,393)"/>
<path d="M0 0 C10.86769828 9.57831035 16.11876009 23.19749954 17.28011703 37.43375778 C17.38632452 41.0921723 17.40568305 44.73999078 17.38818359 48.39990234 C17.392261 49.78946339 17.39760936 51.17902119 17.40411377 52.568573 C17.41764687 56.29964196 17.41254962 60.03045868 17.40297651 63.76153135 C17.39531556 67.68466529 17.40244237 71.60777941 17.40713501 75.53091431 C17.41257013 82.10902745 17.40545619 88.68703904 17.39111328 95.26513672 C17.37475022 102.85716864 17.38011069 110.44895926 17.3965925 118.04098547 C17.41022295 124.58314967 17.41212064 131.12524144 17.40427649 137.66741526 C17.39961376 141.56478942 17.39893722 145.46205021 17.40888596 149.35941696 C17.41757764 153.01874441 17.41149399 156.67776118 17.39420319 160.33705521 C17.38837381 162.31202014 17.39723213 164.2870115 17.40658569 166.26196289 C17.34967275 174.23865051 16.90396007 179.56109991 11.625 185.8125 C5.67021536 190.77482054 -0.55389078 190.62298125 -8 190 C-13.59458796 188.79610132 -16.83995733 185.69492053 -20 181 C-20.90196925 178.66051727 -21.45853734 176.46119391 -22 174 C-22.99 174.86625 -23.98 175.7325 -25 176.625 C-26.33276068 177.75067835 -27.66611582 178.87565318 -29 180 C-29.88558594 180.78890625 -29.88558594 180.78890625 -30.7890625 181.59375 C-40.28330461 189.51235193 -51.99763816 191.08007756 -64 190 C-77.92868048 188.16252978 -90.14689821 182.02429975 -99 171 C-119.39858879 143.0366209 -121.82974881 103.64358156 -116.80053711 70.47558594 C-112.68627338 45.39072034 -103.75229557 20.31487214 -83.125 4.125 C-59.25835712 -12.73100704 -24.71185699 -18.5892178 0 0 Z M-60.2265625 35.09765625 C-77.21807333 53.32423285 -78.73874611 80.22656054 -78.140625 103.94580078 C-77.36322388 120.82998135 -75.12641735 138.13323438 -62.5625 150.375 C-57.26609298 153.73369713 -52.3548179 154.44255778 -46.265625 153.53125 C-39.0876698 151.84814326 -33.97668271 148.20173137 -30 142 C-23.0165478 128.12498313 -22.8350603 113.10461228 -22.796875 97.90625 C-22.79404762 97.14242508 -22.79122025 96.37860016 -22.78830719 95.59162903 C-22.7734016 91.55473495 -22.76411587 87.51787586 -22.75976562 83.48095703 C-22.75427222 79.33536961 -22.73020123 75.19010913 -22.70179367 71.04462433 C-22.68309032 67.83253052 -22.67795777 64.62051462 -22.67642975 61.40837097 C-22.67342356 59.88069356 -22.66546467 58.35301684 -22.65224457 56.82539368 C-22.29142941 42.54834224 -22.29142941 42.54834224 -29.0625 30.5625 C-39.60559712 22.67175436 -51.39429431 26.57181369 -60.2265625 35.09765625 Z " fill="#55CEC6" transform="translate(119,393)"/>
<path d="M0 0 C5.59405479 3.15187415 8.42371011 7.28429821 10.2734375 13.34375 C10.76653265 15.25533806 11.18705214 17.18537266 11.59375 19.1171875 C12.05523437 18.75367188 12.51671875 18.39015625 12.9921875 18.015625 C28.78718458 5.84161539 43.75514584 1.29811806 63.59375 3.1171875 C79.87498091 5.28778068 94.83986467 12.62246433 105.59375 25.1171875 C121.76472567 46.50807878 122.06564198 71.55574471 122.02734375 97.18359375 C122.02982889 99.19351688 122.03417771 101.20343027 122.03869683 103.21334976 C122.05263044 109.50368765 122.05126895 115.79388933 122.03979492 122.08422852 C122.02826396 128.54827528 122.04249756 135.01190954 122.0691914 141.47590214 C122.09138541 147.06191577 122.09797927 152.64780016 122.09211498 158.23385471 C122.08876029 161.55503747 122.0927963 164.87589742 122.10836601 168.19705391 C122.1232631 171.89152968 122.11261064 175.58509357 122.09545898 179.27954102 C122.10996094 180.90752121 122.10996094 180.90752121 122.12475586 182.56838989 C122.0637282 188.8544891 121.39807592 193.94620074 117.59375 199.1171875 C110.61821117 204.66914698 104.22112904 204.69026219 95.59375 204.1171875 C90.4428986 202.97355441 86.94453084 200.13812451 83.59375 196.1171875 C80.84184096 191.2003833 81.30131371 185.94789671 81.30664062 180.47460938 C81.29980759 179.40236115 81.29297455 178.33011292 81.28593445 177.22537231 C81.2723538 174.89825026 81.2632958 172.57109842 81.25822449 170.24394226 C81.24992308 166.55172411 81.22940239 162.85975183 81.20568848 159.16760254 C81.15746169 151.31750085 81.12456938 143.46737426 81.09375 135.6171875 C81.05799253 126.54480903 81.0158432 117.47254941 80.95780945 108.40028381 C80.9378774 104.77949385 80.92944651 101.158797 80.92150879 97.53796387 C81.22203175 70.75764973 81.22203175 70.75764973 68.734375 47.9921875 C62.63886199 42.65305201 55.22544884 40.55414022 47.28125 39.8046875 C37.56634839 40.62798425 27.4430407 43.67346762 20.77734375 51.15625 C12.18789573 63.34078027 10.28506548 77.07599331 10.32250977 91.66552734 C10.31466965 93.29229904 10.31466965 93.29229904 10.30667114 94.95193481 C10.29650825 97.28277533 10.29066437 99.61363805 10.28878975 101.94449997 C10.28509902 105.63535742 10.26830237 109.32595266 10.24803162 113.01675415 C10.19285108 123.50184262 10.16185253 133.98696729 10.13745117 144.47216797 C10.12158389 150.90514256 10.091387 157.33792596 10.05268669 163.77080154 C10.04104395 166.21639606 10.03510641 168.66202471 10.03500557 171.10764694 C10.03481366 174.52037358 10.01656079 177.93257046 9.99438477 181.34521484 C9.99896194 182.35207336 10.00353912 183.35893188 10.008255 184.39630127 C9.94550077 190.46688896 9.36383724 195.08019082 5.09375 199.76171875 C-1.23855095 204.6923385 -6.60623041 204.65170661 -14.40625 204.1171875 C-19.11571152 203.20915407 -21.80224327 201.69493307 -25.28125 198.3671875 C-28.92516459 192.79414165 -29.65602193 187.45670345 -29.66694641 180.88883972 C-29.67077196 180.1957105 -29.67459751 179.50258129 -29.67853898 178.78844815 C-29.68879277 176.48413066 -29.68489146 174.1800659 -29.6809082 171.87573242 C-29.68525896 170.21606721 -29.69044332 168.55640401 -29.69639587 166.89674377 C-29.70975942 162.40073974 -29.71036738 157.90481991 -29.70783257 153.40879989 C-29.70676086 149.64908275 -29.71165148 145.88938252 -29.716438 142.12966901 C-29.7275245 133.25529702 -29.72797571 124.38096736 -29.72192383 115.5065918 C-29.71588694 106.36743357 -29.72818979 97.22842942 -29.7494939 88.08929747 C-29.76713929 80.22918253 -29.77310654 72.36911649 -29.76985615 64.50898248 C-29.7680475 59.8205584 -29.77063746 55.13224418 -29.78457069 50.44383812 C-29.79719193 46.03196323 -29.79516449 41.62032747 -29.78215981 37.20845604 C-29.77980363 35.59525469 -29.78249409 33.98203629 -29.79078293 32.36885452 C-29.83658184 22.75742029 -29.72258864 13.76724592 -24.71875 5.2421875 C-17.84517216 -1.07407321 -8.99951678 -3.30177077 0 0 Z " fill="#55CEC6" transform="translate(200.40625,378.8828125)"/>
<path d="M0 0 C4.60271191 2.08818688 7.12663793 4.72454601 9.37890625 9.3125 C10.53648842 12.94560421 11.50719435 16.60112054 12.37890625 20.3125 C13.14203125 19.3225 13.90515625 18.3325 14.69140625 17.3125 C22.00581645 8.83053136 33.18567445 1.30553947 44.37890625 -0.6875 C46.99756386 -0.83344876 49.57250005 -0.91815443 52.19140625 -0.9375 C52.87783203 -0.958125 53.56425781 -0.97875 54.27148438 -1 C60.61311251 -1.04799719 65.11118734 0.54871863 70.19140625 4.5 C73.84906919 9.20270949 74.63179147 14.00074066 74.44140625 19.8125 C73.58833672 25.37182951 70.68589384 28.84255947 66.37890625 32.3125 C61.16070369 35.34972007 55.57357836 37.25131148 49.87890625 39.1875 C36.76444484 43.84584649 25.1517416 53.11810059 18.37890625 65.3125 C14.25518902 75.07302967 12.23317103 83.52130751 12.22119141 94.0246582 C12.21611069 94.99764862 12.21102997 95.97063904 12.20579529 96.97311401 C12.19511021 99.08253905 12.18648276 101.19197528 12.17967606 103.3014164 C12.1678617 106.6435648 12.14840225 109.98558546 12.1265564 113.3276825 C12.0650251 122.82900732 12.01091319 132.3303183 11.97753906 141.83178711 C11.95656397 147.64724495 11.92123911 153.46246833 11.87678146 159.27779198 C11.86264574 161.49006575 11.85390453 163.70238099 11.85072708 165.91469765 C11.84580413 169.01409986 11.82261022 172.11288246 11.79541016 175.2121582 C11.79841629 176.11996536 11.80142242 177.02777252 11.80451965 177.96308899 C11.7262582 183.9852775 11.17043832 190.06004617 7.06876564 194.83896351 C1.08207169 200.21269452 -4.99229131 200.72107319 -12.71484375 200.55859375 C-18.24017524 200.09072294 -21.35336843 198.52388197 -25.43359375 194.625 C-30.9049571 186.33979264 -29.91248531 176.67537999 -29.89575195 167.12524414 C-29.90010391 165.48351307 -29.90528866 163.84178403 -29.91123962 162.20005798 C-29.92458808 157.75789729 -29.92521299 153.3158219 -29.92267632 148.87364507 C-29.92160391 145.15851933 -29.92649684 141.44341066 -29.93128175 137.72828859 C-29.94236232 128.96085444 -29.94282234 120.19346315 -29.93676758 111.42602539 C-29.93072673 102.39532085 -29.94304496 93.36477208 -29.96433765 84.33409411 C-29.98197553 76.56654275 -29.9879516 68.79904088 -29.9846999 61.03147024 C-29.98289058 56.39842485 -29.98548828 51.76549062 -29.99941444 47.13246346 C-30.01202401 42.77474856 -30.01001921 38.41727592 -29.99700356 34.05956459 C-29.99464512 32.46529304 -29.99734605 30.87100426 -30.00562668 29.27675247 C-30.09608041 10.50030444 -30.09608041 10.50030444 -24.18359375 3.375 C-17.3832686 -2.09843244 -8.29777765 -2.17646627 0 0 Z " fill="#55CEC6" transform="translate(1055.62109375,382.6875)"/>
<path d="M0 0 C4.43287244 2.70790686 6.6911176 6.51085281 8.3125 11.375 C8.41131175 13.69472362 8.44754588 16.01724465 8.45294189 18.33906555 C8.45591302 19.05201709 8.45888414 19.76496864 8.4619453 20.49952477 C8.47063462 22.89463315 8.47214074 25.28969155 8.47363281 27.68481445 C8.47826082 29.39963895 8.48328546 31.11446241 8.48867798 32.82928467 C8.5018056 37.49258391 8.50824764 42.15586875 8.51268864 46.81918359 C8.51561876 49.73207496 8.51972345 52.6449624 8.52419281 55.55785179 C8.53786865 64.67000508 8.5475349 73.78214936 8.5513947 82.8943122 C8.55587592 93.41596303 8.5734264 103.93748397 8.6023953 114.4590953 C8.62400541 122.58997054 8.63409862 130.72080922 8.63543582 138.85171288 C8.63648432 143.708869 8.64240175 148.56590304 8.66025543 153.42302895 C8.67672453 157.99241141 8.67889727 162.56157989 8.67011642 167.13098145 C8.66934543 168.80714173 8.67369701 170.48331346 8.68357468 172.15944481 C8.69627982 174.44987927 8.69042567 176.73955418 8.67999268 179.02998352 C8.68145924 180.31106648 8.6829258 181.59214945 8.6844368 182.91205311 C8.00743049 189.21537375 5.10995894 193.35852274 0.3125 197.375 C-6.4836035 200.11644654 -14.06170044 200.65711137 -21.16796875 198.6875 C-25.82617786 196.58999496 -28.25640383 193.9454608 -30.6875 189.375 C-31.85571231 185.87036306 -31.8193341 183.11770925 -31.82794189 179.41766357 C-31.83091302 178.7054176 -31.83388414 177.99317162 -31.8369453 177.25934243 C-31.84563467 174.86656802 -31.84714075 172.47384363 -31.84863281 170.08105469 C-31.85326086 168.36785271 -31.8582855 166.65465177 -31.86367798 164.94145203 C-31.87680621 160.28221774 -31.88324789 155.62299787 -31.88768864 150.96374798 C-31.89061898 148.05285892 -31.89472374 145.14197381 -31.89919281 142.23108673 C-31.91286951 133.1237368 -31.92253504 124.01639588 -31.9263947 114.9090364 C-31.93087455 104.39588559 -31.94841834 93.88286486 -31.9773953 83.3697536 C-31.9990146 75.24395823 -32.00909913 67.11819944 -32.01043582 58.99237561 C-32.01148377 54.13909994 -32.01738926 49.28594651 -32.03525543 44.43270111 C-32.05174016 39.86577785 -32.05388966 35.29906866 -32.04511642 30.73212624 C-32.04434624 29.05799855 -32.04868637 27.38385933 -32.05857468 25.70976067 C-32.07130557 23.41967691 -32.06541167 21.13035004 -32.05499268 18.840271 C-32.05719252 16.92002924 -32.05719252 16.92002924 -32.0594368 14.96099472 C-31.57395195 10.28023686 -30.32192334 6.27331461 -27.1875 2.6328125 C-19.90153233 -2.869611 -8.48319272 -3.87206334 0 0 Z " fill="#56CEC6" transform="translate(395.6875,383.625)"/>
<path d="M0 0 C4.72005208 1.88802083 9.44010417 3.77604167 14.16015625 5.6640625 C15.08948975 6.03466797 16.01882324 6.40527344 16.97631836 6.78710938 C19.06360269 7.62438257 21.14756816 8.46996062 23.22875977 9.32226562 C35.63988484 14.37085887 48.25709054 18.83958514 60.87426758 23.34277344 C63.82030842 24.39548825 66.76380592 25.45506872 69.70703125 26.515625 C70.61209915 26.83646057 71.51716705 27.15729614 72.44966125 27.487854 C73.2820079 27.78866882 74.11435455 28.08948364 74.97192383 28.39941406 C75.70389481 28.66111389 76.43586578 28.92281372 77.1900177 29.19244385 C79 30 79 30 81 32 C80 34 80 34 77.18359375 35.0078125 C75.94738281 35.37648438 74.71117187 35.74515625 73.4375 36.125 C53.5158184 42.42362599 36.16470883 54.35870053 19.25390625 66.3046875 C7.69584405 74.45645852 -3.93526361 82.56524334 -16.3125 89.4375 C-16.97531982 89.82139893 -17.63813965 90.20529785 -18.32104492 90.60083008 C-23.28827669 93.24415894 -26.50440609 93.12839608 -32 92 C-37.24634391 81.71716594 -34.5850212 66.18641866 -31.31640625 55.62890625 C-24.41849509 36.61359626 -14.46551913 14.46551913 0 0 Z " fill="#55CEC6" transform="translate(1244,287)"/>
<path d="M0 0 C5.92538752 3.97918283 8.40878144 9.51158285 9.8671875 16.25390625 C10.90700043 23.36774836 9.26591328 29.959618 5.8671875 36.25390625 C2.0704815 40.76956296 -2.23555765 44.21321422 -8.1328125 45.25390625 C-16.45674092 45.937025 -21.73772151 45.01361455 -28.8203125 40.56640625 C-33.94666304 35.44005571 -36.22367956 28.79114983 -36.4453125 21.62890625 C-36.37406518 14.73827213 -33.92248696 9.19408572 -30.3828125 3.37890625 C-22.06776373 -4.47419537 -10.08150565 -5.29925297 0 0 Z " fill="#55CEC6" transform="translate(397.1328125,320.74609375)"/>
</svg>
